<svg width="138" height="138" viewBox="0 0 138 138" fill="none" xmlns="http://www.w3.org/2000/svg">
<path d="M10.7812 19.4062H127.219V105.656H10.7812V19.4062Z" fill="#787681"/>
<path d="M122.906 19.4062H127.219V105.656H122.906V19.4062Z" fill="#57565C"/>
<path d="M19.4062 28.0312H118.594V97.0312H19.4062V28.0312Z" fill="#52BBE9"/>
<path d="M114.281 28.0312H118.594V97.0312H114.281V28.0312Z" fill="#1CABE1"/>
<path d="M2.15625 105.656H135.844V122.906H2.15625V105.656Z" fill="#AEADB3"/>
<path d="M131.531 105.656H135.844V122.906H131.531V105.656Z" fill="#8B8893"/>
<path d="M75.4688 114.281H62.5312L58.2188 105.656H79.7812L75.4688 114.281Z" fill="white"/>
<path d="M97.0312 62.5312C97.0312 61.3875 97.4856 60.2906 98.2943 59.4819C99.1031 58.6731 100.2 58.2188 101.344 58.2188V45.2812H36.6562V58.2188C37.8 58.2188 38.8969 58.6731 39.7056 59.4819C40.5144 60.2906 40.9688 61.3875 40.9688 62.5312C40.9688 63.675 40.5144 64.7719 39.7056 65.5806C38.8969 66.3894 37.8 66.8438 36.6562 66.8438V79.7812H101.344V66.8438C100.2 66.8438 99.1031 66.3894 98.2943 65.5806C97.4856 64.7719 97.0312 63.675 97.0312 62.5312Z" fill="#FEE27D"/>
<path d="M101.344 58.2188V45.2812H97.0312V58.2188C95.8875 58.2188 94.7906 58.6731 93.9818 59.4819C93.1731 60.2906 92.7188 61.3875 92.7188 62.5312C92.7188 63.675 93.1731 64.7719 93.9818 65.5806C94.7906 66.3894 95.8875 66.8438 97.0312 66.8438V79.7812H101.344V66.8438C100.2 66.8438 99.1031 66.3894 98.2943 65.5806C97.4856 64.7719 97.0312 63.675 97.0312 62.5312C97.0312 61.3875 97.4856 60.2906 98.2943 59.4819C99.1031 58.6731 100.2 58.2188 101.344 58.2188Z" fill="#FDDD5A"/>
<path d="M66.8437 73.5712L56.7094 63.3937L59.7281 60.375L66.8437 67.4475L82.455 51.4912L85.5169 54.51L66.8437 73.5712Z" fill="white"/>
</svg>
