<svg width="135" height="135" viewBox="0 0 135 135" fill="none" xmlns="http://www.w3.org/2000/svg">
<path fill-rule="evenodd" clip-rule="evenodd" d="M50.7262 101.355L50.6437 101.509L47.055 108.469L46.9725 108.431C37.9887 104.235 30.7823 96.9916 26.6325 87.9863H26.6137L33.7912 84.3113L33.66 84.0863C31.1165 80.3256 29.8624 75.8408 30.0862 71.3063H11.25C11.7637 100.069 34.9875 123.248 63.75 123.72L63.7463 123.758V105.068H63.7087C59.1868 105.283 54.7166 104.029 50.9662 101.494L50.7262 101.355Z" fill="#F8B84E"/>
<path d="M53.925 62.4713C53.925 71.6325 44.0438 73.1737 44.0438 82.5112V86.4114H58.4588V81.8777H49.0313C48.9863 81.6527 48.9863 81.4276 48.9863 81.1988C48.9863 75.9863 58.9125 72.2664 58.9125 62.2914C58.9125 57.2139 56.3738 54.3112 51.48 54.3112C46.5825 54.3112 44.0438 57.2139 44.0438 62.2914V65.3739H48.7575V61.9727C48.7575 59.7077 49.755 58.8448 51.345 58.8448C52.9275 58.8448 53.925 59.6175 53.925 62.4713ZM60.84 80.655H70.4513V86.4114H75.3488V80.655H77.7075V76.1176H75.3488V54.6751H69.9113L60.84 76.1213V80.655ZM65.4188 76.1176L70.4513 64.1924V76.1176H65.4188Z" fill="#2B4255"/>
<path fill-rule="evenodd" clip-rule="evenodd" d="M65.7188 18.78V26.2873H69.4688V18.78H65.7188ZM108.75 65.655V69.405H116.25V65.655H108.75ZM65.7188 30.0075V44.9814H69.4688V30.0075H65.7188ZM82.875 65.655V69.405H105V65.655H82.875Z" fill="#2B4255"/>
<path d="M67.5525 11.28C36.5363 11.28 11.3513 36.4652 11.3513 67.4814H15.1013C15.1013 38.4939 38.5613 15.03 67.5525 15.03C96.54 15.03 120 38.4902 120 67.4814C120 96.4689 96.54 119.929 67.5525 119.929V123.679C98.565 123.679 123.75 98.4939 123.75 67.4814C123.75 36.4652 98.5688 11.28 67.5525 11.28Z" fill="#2B4255"/>
<path fill-rule="evenodd" clip-rule="evenodd" d="M67.5525 7.53375C34.5075 7.53375 7.60122 34.4363 7.60122 67.4813C7.60296 68.1181 7.76686 68.744 8.07747 69.3C7.68715 69.9189 7.4864 70.6384 7.49997 71.37C8.05122 102.116 32.94 126.967 63.6825 127.47C64.3853 127.479 65.0766 127.291 65.6775 126.926C66.2472 127.257 66.8939 127.431 67.5525 127.433C100.597 127.433 127.5 100.526 127.5 67.4813C127.5 34.4363 100.597 7.53375 67.5525 7.53375ZM67.5525 11.2838C98.565 11.2838 123.75 36.465 123.75 67.4813C123.75 98.4975 98.565 123.683 67.5525 123.683V119.933C96.54 119.933 120 96.4688 120 67.4813C120 38.4938 96.54 15.0338 67.5525 15.0338C38.565 15.0338 15.1012 38.4938 15.1012 67.4813H11.3512C11.3512 36.4688 36.5362 11.2838 67.5525 11.2838ZM65.7187 18.7838H69.4687V26.2913H65.7187V18.7838ZM61.9687 19.3538V26.2913C61.9702 26.9441 62.1422 27.5852 62.4675 28.1513C62.1422 28.7173 61.9702 29.3584 61.9687 30.0113V44.9813C61.9687 45.9758 62.3638 46.9296 63.0671 47.6329C63.7703 48.3362 64.7242 48.7313 65.7187 48.7313H69.4687C70.4633 48.7313 71.4171 48.3362 72.1204 47.6329C72.8236 46.9296 73.2187 45.9758 73.2187 44.9813V30.0113C73.2184 29.3587 73.0477 28.7176 72.7237 28.1513C73.0477 27.5849 73.2184 26.9438 73.2187 26.2913V19.3538C84.0692 20.5947 94.178 25.479 101.893 33.2086C109.609 40.9382 114.474 51.056 115.695 61.9088H108.75C108.091 61.9099 107.445 62.0845 106.875 62.415C106.305 62.0845 105.659 61.9099 105 61.9088H82.875C81.8804 61.9088 80.9266 62.3038 80.2233 63.0071C79.5201 63.7104 79.125 64.6642 79.125 65.6588V69.4088C79.125 70.4033 79.5201 71.3571 80.2233 72.0604C80.9266 72.7637 81.8804 73.1588 82.875 73.1588H105C105.659 73.1576 106.305 72.983 106.875 72.6525C107.445 72.983 108.091 73.1576 108.75 73.1588H115.68C112.849 97.3988 92.5725 116.183 67.5525 116.183C67.5325 116.182 67.5125 116.182 67.4925 116.183V105.071C67.4925 104.077 67.0974 103.123 66.3941 102.42C65.6909 101.716 64.737 101.321 63.7425 101.321H63.6975C63.6387 101.32 63.58 101.32 63.5212 101.321C59.8086 101.495 56.1395 100.462 53.0625 98.3775C52.9772 98.3202 52.8896 98.2664 52.8 98.2163L52.5675 98.0813C52.13 97.8346 51.6475 97.6783 51.1485 97.6216C50.6495 97.565 50.1442 97.6091 49.6626 97.7515C49.181 97.8938 48.7329 98.1315 48.3448 98.4503C47.9568 98.7691 47.6368 99.1626 47.4037 99.6075L47.3212 99.7575C47.3187 99.77 47.3162 99.7825 47.3137 99.795L45.66 103.005C40.0412 99.7196 35.3705 95.0334 32.1037 89.4038L35.5012 87.66C35.9546 87.4283 36.356 87.1067 36.6811 86.7147C37.0061 86.3228 37.2479 85.8688 37.3917 85.3804C37.5356 84.892 37.5785 84.3794 37.5178 83.8739C37.4571 83.3684 37.2941 82.8805 37.0387 82.44L36.9075 82.2113C36.8638 82.1359 36.8175 82.0621 36.7687 81.99C34.679 78.9028 33.6474 75.221 33.8287 71.4975C33.8541 70.9901 33.7762 70.4829 33.5996 70.0066C33.423 69.5302 33.1515 69.0947 32.8015 68.7265C32.4515 68.3583 32.0304 68.065 31.5636 67.8645C31.0969 67.664 30.5942 67.5604 30.0862 67.56H18.8512C18.8514 67.5363 18.8514 67.5125 18.8512 67.4888C18.8512 42.4388 37.6837 22.14 61.9687 19.3538ZM65.7187 30.0113H69.4687V44.9813H65.7187V30.0113ZM51.4762 50.5612C48.2887 50.5612 45.2062 51.6225 43.1512 53.8613C41.1 56.0963 40.29 59.1263 40.29 62.2875V65.3738C40.29 66.3683 40.6851 67.3221 41.3883 68.0254C42.0916 68.7287 43.0454 69.1238 44.04 69.1238H46.86C46.6125 69.3938 46.4962 69.5963 46.2225 69.8925C43.7475 72.5963 40.29 76.5188 40.29 82.5113V86.415C40.29 87.4096 40.6851 88.3634 41.3883 89.0667C42.0916 89.7699 43.0454 90.165 44.04 90.165H58.4625C59.457 90.165 60.4109 89.7699 61.1141 89.0667C61.8174 88.3634 62.2125 87.4096 62.2125 86.415V84.4013H66.7012V86.415C66.7012 87.4096 67.0963 88.3634 67.7996 89.0667C68.5028 89.7699 69.4567 90.165 70.4512 90.165H75.3525C76.347 90.165 77.3009 89.7699 78.0041 89.0667C78.7074 88.3634 79.1025 87.4096 79.1025 86.415V84.1275C79.7977 83.8497 80.3939 83.3702 80.8143 82.7507C81.2347 82.1311 81.46 81.3999 81.4612 80.6513V76.1175C81.4604 75.3677 81.2349 74.6354 80.8138 74.0151C80.3927 73.3948 79.7953 72.9149 79.0987 72.6375V54.675C79.0987 53.6804 78.7036 52.7266 78.0004 52.0234C77.2971 51.3201 76.3433 50.925 75.3487 50.925H69.9112C69.1739 50.9241 68.4526 51.1407 67.8376 51.5475C67.2227 51.9544 66.7413 52.5335 66.4537 53.2125L62.6437 62.2238C62.6325 59.085 61.8337 56.0775 59.7937 53.8613C57.7387 51.6225 54.6637 50.5612 51.4762 50.5612ZM51.4762 54.3113C56.37 54.3113 58.9162 57.21 58.9162 62.2875C58.9162 72.2625 48.9825 75.9863 48.9825 81.1988C48.9825 81.4238 48.9825 81.6488 49.0275 81.8737H58.4625V86.415H44.04V82.5113C44.04 73.1738 53.9287 71.6325 53.9287 62.4713C53.9287 59.6175 52.9312 58.845 51.3412 58.845C49.755 58.845 48.7575 59.7075 48.7575 61.9725V65.3738H44.04V62.2875C44.04 57.21 46.5787 54.3113 51.4762 54.3113ZM69.9112 54.6712H75.3487V76.1175H77.7112V80.6513H75.3487V86.415H70.4512V80.6513H60.8437V76.1175L69.9112 54.6712ZM70.4512 64.1963L65.4187 76.1175H70.4512V64.1963ZM82.875 65.6588H105V69.4088H82.875V65.6588ZM108.75 65.6588H116.25V69.4088H108.75V65.6588ZM11.25 71.3063H30.0862C29.864 75.8412 31.1194 80.3258 33.6637 84.0863L33.795 84.3113L26.6175 87.99H26.6325C30.782 96.9933 37.987 104.235 46.9687 108.431L47.0587 108.469L50.6475 101.509L50.7262 101.359L50.9625 101.49C54.7125 104.025 59.175 105.285 63.6975 105.071H63.7425V123.716C34.98 123.248 11.7675 100.069 11.25 71.3063ZM57.1575 75.45C57.1163 75.6702 57.095 75.8935 57.0937 76.1175V78.1237H54.9112C55.5187 77.4375 56.0062 76.8675 56.7712 76.0013C56.8987 75.8512 57.0262 75.6038 57.1575 75.45Z" fill="#E9EDED"/>
</svg>
