<svg width="126" height="126" viewBox="0 0 126 126" fill="none" xmlns="http://www.w3.org/2000/svg">
<path d="M88.9949 66.9375H37.0051C35.9364 66.9375 34.8878 67.2274 33.971 67.7764C33.0542 68.3253 32.3034 69.1127 31.7988 70.0547L8.5957 113.367C8.11363 114.267 7.87303 115.277 7.89737 116.297C7.92171 117.318 8.21015 118.314 8.73456 119.19C9.25898 120.066 10.0014 120.791 10.8896 121.295C11.7777 121.798 12.7811 122.062 13.8019 122.062H112.198C113.219 122.062 114.222 121.798 115.11 121.295C115.999 120.791 116.741 120.066 117.265 119.19C117.79 118.314 118.078 117.318 118.103 116.297C118.127 115.277 117.886 114.267 117.404 113.367L94.2012 70.0547C93.6966 69.1127 92.9459 68.3253 92.029 67.7764C91.1122 67.2274 90.0636 66.9375 88.9949 66.9375Z" fill="white"/>
<path d="M104.344 43.8058C104.344 79.2443 63 106.31 63 106.31C63 106.31 21.6562 79.2443 21.6562 43.8058C21.6562 21.7872 40.1664 3.9375 63 3.9375C85.8336 3.9375 104.344 21.7872 104.344 43.8058Z" fill="#81D4FA"/>
<path d="M86.625 43.3125C86.6222 38.4303 85.1061 33.6691 82.2856 29.6841C79.465 25.6991 75.4785 22.6864 70.875 21.0606V43.3125H55.125V21.0606C50.4066 22.7249 46.3391 25.8457 43.51 29.9724C40.6809 34.0991 39.2366 39.0182 39.3855 44.0193C39.5344 49.0205 41.2688 53.8449 44.3384 57.796C47.408 61.747 51.6539 64.6203 56.463 66.0009L55.125 80.7188H70.875L69.537 66.0009C74.4606 64.5841 78.79 61.6047 81.8724 57.5122C84.9547 53.4197 86.6227 48.4359 86.625 43.3125Z" fill="white"/>
<path opacity="0.1" d="M63 3.9375C61.6219 3.9375 40.4972 7.875 59.0625 7.875C79.695 7.875 96.4688 23.9991 96.4688 43.8047C96.4688 72.1547 67.3313 95.4647 59.0625 101.489C51.3647 95.8781 29.925 71.8003 30.4172 72.6272C30.4172 72.6469 26.775 80.3447 26.775 80.4037C35.1109 91.7531 45.2931 101.622 56.8969 109.6C57.5397 110.024 58.2926 110.25 59.0625 110.25C59.8324 110.25 60.5854 110.024 61.2281 109.6C62.4685 108.793 83.7113 94.6772 95.8978 73.2375C114.778 45.7931 100.052 3.48469 63 3.9375ZM116.924 111.49L101.45 82.5891C101.206 82.1328 100.875 81.7291 100.475 81.401C100.075 81.073 99.6144 80.827 99.1193 80.6773C98.6243 80.5275 98.1045 80.4769 97.5899 80.5282C97.0752 80.5796 96.5757 80.732 96.12 80.9767C95.6643 81.2213 95.2614 81.5535 94.9342 81.9541C94.6071 82.3547 94.3622 82.816 94.2135 83.3114C94.0649 83.8068 94.0154 84.3266 94.0679 84.8412C94.1205 85.3557 94.274 85.8549 94.5197 86.31L109.994 115.211C110.565 116.944 109.994 117.849 108.262 118.125L112.199 122.062C117.83 122.023 119.503 115.605 116.924 111.49Z" fill="#2B4255"/>
<path opacity="0.1" d="M86.625 43.3125C86.6136 37.6186 84.8426 32.0673 81.5545 27.4188C78.2663 22.7702 73.6217 19.2516 68.2565 17.3447C67.6616 17.1412 67.0268 17.0819 66.4045 17.1716C65.7821 17.2614 65.19 17.4976 64.6767 17.8609C64.1635 18.2242 63.7439 18.7042 63.4524 19.2613C63.1609 19.8185 63.0058 20.4369 63 21.0656V39.375H55.125V21.0656C55.1192 20.4368 54.9642 19.8184 54.6727 19.2613C54.3812 18.7041 53.9615 18.2241 53.4483 17.8608C52.9351 17.4975 52.3429 17.2613 51.7205 17.1716C51.0982 17.0818 50.4634 17.1412 49.8684 17.3447C44.6293 19.1955 40.0725 22.5876 36.7965 27.0755C33.5205 31.5634 31.6784 36.9372 31.5123 42.4912C31.3462 48.0451 32.8638 53.5194 35.8658 58.195C38.8677 62.8707 43.2137 66.5291 48.3328 68.6897L47.2697 80.3644C47.2238 80.9081 47.2908 81.4555 47.4665 81.9721C47.6422 82.4887 47.9228 82.9634 48.2907 83.3665C48.6586 83.7695 49.1058 84.0921 49.6043 84.314C50.1028 84.536 50.6418 84.6525 51.1875 84.6563H66.9375C67.4832 84.6525 68.0221 84.536 68.5206 84.314C69.0191 84.0921 69.4664 83.7695 69.8343 83.3665C70.2022 82.9634 70.4828 82.4887 70.6585 81.9721C70.8342 81.4555 70.9012 80.9081 70.8553 80.3644L69.7922 68.6897C74.7701 66.5665 79.0171 63.0316 82.0086 58.5217C85 54.0117 86.6049 48.7243 86.625 43.3125ZM64.5159 62.2125C63.6346 62.4682 62.8698 63.0225 62.3525 63.7805C61.8353 64.5384 61.5978 65.4527 61.6809 66.3666L62.6259 76.7812H55.4991L56.4441 66.3666C56.5271 65.4527 56.2897 64.5384 55.7724 63.7805C55.2552 63.0226 54.4903 62.4682 53.6091 62.2125C50.092 61.2029 46.9265 59.2318 44.4688 56.5208C42.0112 53.8099 40.3589 50.4669 39.6981 46.8679C39.0372 43.269 39.394 39.557 40.7282 36.1498C42.0623 32.7426 44.321 29.7754 47.25 27.5822V43.3125C47.2531 44.3558 47.6689 45.3556 48.4067 46.0933C49.1444 46.8311 50.1441 47.2469 51.1875 47.25H66.9375C67.9808 47.247 68.9806 46.8311 69.7183 46.0934C70.4561 45.3556 70.8719 44.3559 70.875 43.3125V27.5822C73.8039 29.7754 76.0625 32.7426 77.3967 36.1498C78.7309 39.557 79.0876 43.269 78.4268 46.8679C77.7659 50.4668 76.1137 53.8099 73.6561 56.5208C71.1984 59.2317 68.033 61.2029 64.5159 62.2125ZM92.531 110.25C93.3098 110.25 94.071 110.019 94.7185 109.586C95.3661 109.154 95.8707 108.539 96.1688 107.819C96.4668 107.1 96.5448 106.308 96.3928 105.544C96.2409 104.781 95.8659 104.079 95.3152 103.528C94.7645 102.978 94.063 102.603 93.2992 102.451C92.5354 102.299 91.7437 102.377 91.0242 102.675C90.3047 102.973 89.6897 103.477 89.2571 104.125C88.8244 104.772 88.5935 105.534 88.5935 106.313C88.5934 106.83 88.6952 107.342 88.8931 107.819C89.0909 108.297 89.381 108.731 89.7466 109.097C90.1123 109.463 90.5464 109.753 91.0241 109.95C91.5019 110.148 92.0139 110.25 92.531 110.25Z" fill="#2B4255"/>
<path d="M120.867 111.498L105.393 82.5962C105.149 82.1397 104.818 81.7357 104.418 81.4073C104.018 81.0789 103.558 80.8326 103.062 80.6824C102.567 80.5322 102.047 80.481 101.532 80.5319C101.017 80.5828 100.518 80.7347 100.061 80.9789C99.6052 81.2231 99.2016 81.5549 98.8737 81.9552C98.5458 82.3555 98.3 82.8165 98.1504 83.3119C98.0008 83.8072 97.9503 84.3272 98.0018 84.8421C98.0533 85.357 98.2058 85.8567 98.4506 86.3126L113.925 115.214C114.51 116.935 113.924 117.846 112.199 118.12H13.801C12.0753 117.846 11.4899 116.935 12.0754 115.214L30.721 80.3817C39.0388 91.7544 49.2239 101.635 60.8438 109.604C61.4846 110.024 62.234 110.247 63 110.247C63.766 110.247 64.5153 110.024 65.1562 109.604C66.9173 108.451 108.281 80.9456 108.281 43.8057C108.281 19.651 87.9677 0 63 0C38.0323 0 17.7191 19.651 17.7191 43.8057C17.9086 53.9905 20.7195 63.9546 25.8806 72.7369L5.13285 111.498C4.34563 112.999 3.95712 114.678 4.00455 116.372C4.05198 118.067 4.53375 119.721 5.40373 121.176C6.2737 122.631 7.50272 123.838 8.97305 124.682C10.4434 125.526 12.1058 125.978 13.801 125.995H112.199C113.894 125.978 115.557 125.526 117.027 124.682C118.497 123.838 119.726 122.631 120.596 121.176C121.466 119.721 121.948 118.067 121.995 116.372C122.043 114.678 121.654 112.999 120.867 111.498ZM63 7.875C83.6255 7.875 100.406 23.9932 100.406 43.8057C100.406 72.1497 71.2652 95.4565 63 101.494C54.7348 95.4565 25.5941 72.1497 25.5941 43.8057C25.5941 23.9932 42.3744 7.875 63 7.875Z" fill="#4D4D4D"/>
<path d="M51.204 80.3621C51.158 80.9062 51.2251 81.454 51.401 81.971C51.5769 82.4879 51.8577 82.963 52.2259 83.3662C52.5942 83.7695 53.0418 84.0922 53.5407 84.3142C54.0396 84.5362 54.579 84.6527 55.125 84.6563H70.8748C71.4209 84.6527 71.9603 84.5362 72.4592 84.3142C72.9581 84.0922 73.4057 83.7695 73.774 83.3662C74.1422 82.963 74.423 82.488 74.5989 81.971C74.7748 81.454 74.8419 80.9062 74.796 80.3621L73.7347 68.6832C78.8531 66.5227 83.1983 62.8644 86.1994 58.189C89.2004 53.5135 90.717 48.0396 90.5498 42.4864C90.3826 36.9331 88.5394 31.5604 85.2625 27.074C81.9856 22.5875 77.4282 19.1973 72.189 17.3487C71.5951 17.1449 70.9612 17.0851 70.3397 17.1742C69.7181 17.2633 69.1266 17.4987 68.6138 17.8611C68.1011 18.2235 67.6817 18.7026 67.3903 19.2587C67.0989 19.8149 66.9437 20.4324 66.9376 21.0603V39.375H59.0625V21.0603C59.0566 20.4323 58.9016 19.8147 58.6102 19.2584C58.3188 18.7021 57.8994 18.223 57.3866 17.8606C56.8738 17.4981 56.2822 17.2627 55.6605 17.1737C55.0389 17.0847 54.405 17.1446 53.811 17.3487C48.5719 19.1973 44.0144 22.5875 40.7375 27.0739C37.4606 31.5604 35.6174 36.9331 35.4502 42.4863C35.283 48.0396 36.7995 53.5135 39.8006 58.1889C42.8016 62.8644 47.1468 66.5227 52.2652 68.6832L51.204 80.3621ZM43.3125 43.3125C43.3176 40.2607 44.0316 37.2518 45.3982 34.523C46.7648 31.7943 48.7467 29.4204 51.1875 27.5885V43.3125C51.1876 44.3568 51.6025 45.3583 52.3409 46.0967C53.0793 46.8351 54.0808 47.25 55.125 47.25H70.8748C71.9191 47.25 72.9206 46.8351 73.659 46.0967C74.3974 45.3583 74.8122 44.3568 74.8123 43.3125V27.5885C77.7415 29.7817 80.0004 32.7491 81.3345 36.1566C82.6686 39.5641 83.025 43.2763 82.3636 46.8754C81.7022 50.4745 80.0493 53.8175 77.5909 56.528C75.1325 59.2385 71.9662 61.209 68.4486 62.2175C67.5685 62.4704 66.8041 63.0221 66.287 63.7778C65.7699 64.5335 65.5325 65.4459 65.6156 66.3578L66.5635 76.7813H59.4365L60.3843 66.3578C60.4674 65.4459 60.2299 64.5336 59.7128 63.7779C59.1957 63.0222 58.4313 62.4704 57.5513 62.2176C53.4556 61.0249 49.8557 58.5393 47.2894 55.1319C44.723 51.7245 43.3279 47.5782 43.3125 43.3125ZM96.4685 110.25C97.2473 110.25 98.0085 110.019 98.6561 109.586C99.3036 109.154 99.8083 108.539 100.106 107.819C100.404 107.1 100.482 106.308 100.33 105.544C100.178 104.781 99.8034 104.079 99.2527 103.528C98.7021 102.978 98.0005 102.603 97.2367 102.451C96.4729 102.299 95.6812 102.377 94.9617 102.675C94.2422 102.973 93.6273 103.477 93.1946 104.125C92.7619 104.772 92.531 105.534 92.531 106.312C92.5309 106.83 92.6328 107.342 92.8306 107.819C93.0285 108.297 93.3185 108.731 93.6841 109.097C94.0498 109.463 94.4839 109.753 94.9616 109.95C95.4394 110.148 95.9514 110.25 96.4685 110.25Z" fill="#4D4D4D"/>
</svg>
