<svg width="141" height="127" viewBox="0 0 141 127" fill="none" xmlns="http://www.w3.org/2000/svg">
<path d="M116.113 98.7251C119.235 98.7251 121.767 96.4451 121.767 93.6327C121.767 90.8202 119.235 88.5403 116.113 88.5403C112.99 88.5403 110.459 90.8202 110.459 93.6327C110.459 96.4451 112.99 98.7251 116.113 98.7251Z" fill="#ECEFF0"/>
<path d="M6.09991 87.0695H18.1262C16.8099 88.9745 16.0498 91.2242 16.0498 93.6328H6.09991V87.0695Z" fill="#526471"/>
<path d="M29.8716 88.5403C32.9946 88.5403 35.5282 90.8198 35.5282 93.6327C35.5282 96.4455 32.9946 98.7251 29.8716 98.7251C26.7515 98.7251 24.2179 96.4455 24.2179 93.6327C24.2179 90.8198 26.7515 88.5403 29.8716 88.5403Z" fill="#ECEFF0"/>
<path d="M41.6198 87.0694C42.9362 88.9744 43.6962 91.2242 43.6962 93.6327C43.6962 100.509 37.5055 106.082 29.8716 106.082C22.2378 106.082 16.0498 100.509 16.0498 93.6327C16.0498 91.2242 16.8099 88.9744 18.1262 87.0694C20.5634 83.5347 24.9118 81.1832 29.8716 81.1832C34.8314 81.1832 39.1826 83.5347 41.6198 87.0694ZM35.5282 93.6327C35.5282 90.8198 32.9946 88.5403 29.8716 88.5403C26.7515 88.5403 24.2179 90.8198 24.2179 93.6327C24.2179 96.4456 26.7515 98.7251 29.8716 98.7251C32.9946 98.7251 35.5282 96.4456 35.5282 93.6327Z" fill="#303C44"/>
<path d="M104.365 87.0695H104.368C103.051 88.9745 102.291 91.2242 102.291 93.6328H43.6962C43.6962 91.2242 42.9361 88.9745 41.6198 87.0695H104.365Z" fill="#526471"/>
<path d="M127.858 87.0694C129.175 88.9744 129.935 91.2242 129.935 93.6327C129.935 100.509 123.747 106.082 116.113 106.082C108.479 106.082 102.291 100.509 102.291 93.6327C102.291 91.2242 103.051 88.9744 104.368 87.0694C106.805 83.5347 111.153 81.1832 116.113 81.1832C121.073 81.1832 125.421 83.5347 127.858 87.0694ZM121.767 93.6327C121.767 90.8198 119.236 88.5403 116.113 88.5403C112.99 88.5403 110.459 90.8198 110.459 93.6327C110.459 96.4456 112.99 98.7251 116.113 98.7251C119.236 98.7251 121.767 96.4456 121.767 93.6327Z" fill="#303C44"/>
<path d="M134.9 87.0695V93.6328H129.935C129.935 91.2242 129.175 88.9745 127.858 87.0695H134.9Z" fill="#526471"/>
<path d="M119.61 34.5678C114.532 32.1617 107.771 30.5345 98.7744 30.5345V54.5306H134.897C134.897 54.5306 134.038 41.404 119.61 34.5678Z" fill="#007ECA"/>
<path opacity="0.2" d="M134.897 54.5306H134.399C133.317 50.3138 129.943 42.1927 119.61 37.2963C114.532 34.8902 107.771 33.2631 98.7744 33.2631V30.5345C107.771 30.5345 114.532 32.1617 119.61 34.5678C134.038 41.404 134.897 54.5306 134.897 54.5306Z" fill="white"/>
<path d="M98.7744 20.9178V87.0694H41.6198C39.1826 83.5347 34.8314 81.1833 29.8716 81.1833C24.9118 81.1833 20.5634 83.5347 18.1262 87.0694H6.09991V20.9178H98.7744Z" fill="#ECEFF0"/>
<path d="M134.9 54.5306V87.0694H127.858C125.421 83.5348 121.073 81.1833 116.113 81.1833C111.153 81.1833 106.805 83.5348 104.368 87.0694H98.7744V54.5306H134.9Z" fill="#FFC035"/>
<path d="M113.946 63.5H105.778C105.485 63.5 105.205 63.3955 104.999 63.2094C104.792 63.0233 104.676 62.771 104.676 62.5078C104.676 62.2447 104.792 61.9923 104.999 61.8062C105.205 61.6202 105.485 61.5156 105.778 61.5156H113.946C114.238 61.5156 114.518 61.6202 114.725 61.8062C114.931 61.9923 115.047 62.2447 115.047 62.5078C115.047 62.771 114.931 63.0233 114.725 63.2094C114.518 63.3955 114.238 63.5 113.946 63.5Z" fill="#ECEFF0"/>
<path opacity="0.2" d="M98.7744 54.5306H134.897V56.6787H98.7744V54.5306ZM6.09991 20.9178H98.7716V25.0942H6.09991V20.9178Z" fill="#303C44"/>
<path opacity="0.1" d="M98.7744 30.4056V87.0694H41.6198C39.1826 83.5347 34.8314 81.1833 29.8716 81.1833C24.9118 81.1833 20.5634 83.5347 18.1262 87.0694H6.09991V85.4893L98.7744 30.4056Z" fill="url(#paint0_linear_1_121)"/>
<path opacity="0.1" d="M134.9 57.0012V87.0695H127.858C125.421 83.5348 121.073 81.1833 116.113 81.1833C111.153 81.1833 106.805 83.5348 104.368 87.0695H100.052L134.9 57.0012Z" fill="url(#paint1_linear_1_121)"/>
<defs>
<linearGradient id="paint0_linear_1_121" x1="44.119" y1="51.2452" x2="86.4139" y2="98.2026" gradientUnits="userSpaceOnUse">
<stop/>
<stop offset="1" stop-color="white" stop-opacity="0"/>
</linearGradient>
<linearGradient id="paint1_linear_1_121" x1="117.11" y1="71.7054" x2="132.718" y2="89.0346" gradientUnits="userSpaceOnUse">
<stop/>
<stop offset="1" stop-color="white" stop-opacity="0"/>
</linearGradient>
</defs>
</svg>
