<svg width="17" height="17" viewBox="0 0 17 17" fill="none" xmlns="http://www.w3.org/2000/svg">
<path d="M15.9375 12.75V2.125H1.0625V12.75H0V15.4062H17V12.75H15.9375ZM1.59375 2.65625H15.4062V12.75H1.59375V2.65625ZM9.39781 13.2812L9.13219 13.8125H7.86781L7.60219 13.2812H9.39781ZM16.4688 14.875H0.53125V13.2812H7.00719L7.53844 14.3438H9.46156L9.99281 13.2812H16.4688V14.875ZM2.125 12.2188H14.875V3.1875H2.125V12.2188ZM2.65625 3.71875H14.3438V11.6875H2.65625V3.71875ZM10.5347 6.715L10.1575 6.34312L8.23438 8.30875L7.35781 7.4375L6.98594 7.80937L8.23438 9.06312L10.5347 6.715ZM4.25 7.4375H4.51562C4.58607 7.4375 4.65364 7.46549 4.70345 7.5153C4.75326 7.56511 4.78125 7.63268 4.78125 7.70312C4.78125 7.77357 4.75326 7.84114 4.70345 7.89095C4.65364 7.94076 4.58607 7.96875 4.51562 7.96875H4.25V10.0938H12.75V7.96875H12.4844C12.4139 7.96875 12.3464 7.94076 12.2965 7.89095C12.2467 7.84114 12.2188 7.77357 12.2188 7.70312C12.2188 7.63268 12.2467 7.56511 12.2965 7.5153C12.3464 7.46549 12.4139 7.4375 12.4844 7.4375H12.75V5.3125H4.25V7.4375ZM4.78125 5.84375H12.2188V6.95406C12.0625 7.00744 11.9268 7.10836 11.8308 7.24268C11.7347 7.377 11.6831 7.53799 11.6831 7.70312C11.6831 7.86826 11.7347 8.02925 11.8308 8.16357C11.9268 8.29789 12.0625 8.39881 12.2188 8.45219V9.5625H4.78125V8.45219C4.93752 8.39881 5.07317 8.29789 5.16923 8.16357C5.26528 8.02925 5.31693 7.86826 5.31693 7.70312C5.31693 7.53799 5.26528 7.377 5.16923 7.24268C5.07317 7.10836 4.93752 7.00744 4.78125 6.95406V5.84375Z" fill="black"/>
</svg>
