<svg width="81" height="81" viewBox="0 0 81 81" fill="none" xmlns="http://www.w3.org/2000/svg">
<g clip-path="url(#clip0_1_229)">
<path d="M80.9209 40.5C80.9204 48.4943 78.5495 56.309 74.1078 62.956C69.6662 69.6029 63.3534 74.7836 55.9676 77.8429C48.5818 80.9023 40.4547 81.7029 32.6139 80.1436C24.7731 78.5843 17.5707 74.735 11.9174 69.0826C4.40715 61.4874 0.208302 51.2284 0.238319 40.547C0.268336 29.8657 4.52478 19.6305 12.0776 12.0776C19.6305 4.52478 29.8657 0.268336 40.5471 0.238319C51.2284 0.208302 61.4874 4.40715 69.0826 11.9174C72.8475 15.6624 75.8323 20.1169 77.8644 25.0231C79.8964 29.9292 80.9353 35.1897 80.9209 40.5Z" fill="#FFA000"/>
<path d="M46.4263 14.7445H34.5737V50.3054H46.4263V14.7445Z" fill="white"/>
<path d="M46.4263 54.4014H34.5737V66.2555H46.4263V54.4014Z" fill="white"/>
<path d="M74.876 61.7925C73.2302 64.4362 71.2863 66.8822 69.0826 69.0825C63.4296 74.7357 56.2272 78.5857 48.3861 80.1454C40.5451 81.7052 32.4176 80.9047 25.0315 77.8453C17.6453 74.7858 11.3324 69.6047 6.89087 62.9573C2.44938 56.3099 0.0788834 48.4946 0.0791473 40.5C0.0517902 31.0384 3.3696 21.8717 9.44635 14.6195C4.65484 22.3708 2.62006 31.5125 3.6715 40.5643C4.72294 49.6162 8.79905 58.0481 15.2398 64.4946C22.8206 72.0746 33.102 76.333 43.8223 76.333C54.5427 76.333 64.824 72.0746 72.4049 64.4946C73.2729 63.6256 74.0966 62.7249 74.876 61.7925Z" fill="#EA8500"/>
<path opacity="0.5" d="M75.6211 41.291C75.4113 41.291 75.2101 41.2077 75.0618 41.0593C74.9134 40.911 74.8301 40.7098 74.8301 40.5C74.8301 31.3951 71.2132 22.6631 64.775 16.225C58.3369 9.78683 49.6049 6.16992 40.5 6.16992C40.2902 6.16992 40.089 6.08658 39.9407 5.93824C39.7923 5.78989 39.709 5.5887 39.709 5.37891C39.709 5.16912 39.7923 4.96792 39.9407 4.81957C40.089 4.67123 40.2902 4.58789 40.5 4.58789C45.216 4.58789 49.8859 5.51678 54.243 7.32154C58.6 9.12629 62.5589 11.7716 65.8937 15.1063C69.2284 18.4411 71.8737 22.4 73.6785 26.757C75.4832 31.1141 76.4121 35.784 76.4121 40.5C76.4121 40.7098 76.3288 40.911 76.1804 41.0593C76.0321 41.2077 75.8309 41.291 75.6211 41.291Z" fill="white"/>
</g>
<defs>
<clipPath id="clip0_1_229">
<rect width="81" height="81" fill="white"/>
</clipPath>
</defs>
</svg>
