<svg width="19" height="19" viewBox="0 0 19 19" fill="none" xmlns="http://www.w3.org/2000/svg">
<path d="M17.5268 8.21235L15.3336 6.18247C14.854 5.73857 14.2245 5.49207 13.5709 5.49224H12.4502V5.26587C12.45 4.77382 12.2545 4.30198 11.9066 3.95405C11.5586 3.60612 11.0868 3.41058 10.5948 3.4104H2.49377C2.00173 3.41058 1.52988 3.60612 1.18196 3.95405C0.834026 4.30198 0.638483 4.77382 0.638306 5.26587V13.5747C0.63859 13.673 0.677778 13.7672 0.74731 13.8367C0.816842 13.9063 0.911067 13.9455 1.0094 13.9458H2.16721C2.24478 14.4054 2.48265 14.8227 2.83861 15.1236C3.19458 15.4245 3.64563 15.5896 4.11174 15.5896C4.57786 15.5896 5.02891 15.4245 5.38488 15.1236C5.74084 14.8227 5.97871 14.4054 6.05627 13.9458H12.966C13.0436 14.4054 13.2815 14.8227 13.6374 15.1236C13.9934 15.4245 14.4445 15.5896 14.9106 15.5896C15.3767 15.5896 15.8277 15.4245 16.1837 15.1236C16.5397 14.8227 16.7775 14.4054 16.8551 13.9458H17.9869C18.0853 13.9455 18.1795 13.9063 18.249 13.8367C18.3186 13.7672 18.3577 13.673 18.358 13.5747V10.1198C18.3593 9.76159 18.286 9.40705 18.1429 9.07868C17.9998 8.75031 17.79 8.45529 17.5268 8.21235ZM17.0221 8.75786H14.8252V6.72427L14.8289 6.72798L17.0221 8.75786ZM2.49377 4.15259H10.5948C10.8897 4.15345 11.1724 4.27102 11.381 4.47961C11.5896 4.68821 11.7072 4.97087 11.708 5.26587V6.60552V9.51489V9.56685H1.38049V5.26587C1.38135 4.97087 1.49892 4.68821 1.70752 4.47961C1.91611 4.27102 2.19878 4.15345 2.49377 4.15259ZM4.11174 14.8475C3.8688 14.8475 3.63132 14.7755 3.42932 14.6405C3.22733 14.5055 3.06989 14.3137 2.97692 14.0892C2.88395 13.8648 2.85963 13.6178 2.90702 13.3796C2.95442 13.1413 3.07141 12.9224 3.24319 12.7506C3.41497 12.5789 3.63384 12.4619 3.87211 12.4145C4.11038 12.3671 4.35735 12.3914 4.5818 12.4844C4.80625 12.5773 4.99808 12.7348 5.13305 12.9368C5.26802 13.1388 5.34006 13.3763 5.34006 13.6192C5.33968 13.9448 5.21015 14.257 4.97987 14.4873C4.7496 14.7176 4.4374 14.8471 4.11174 14.8475ZM4.11174 11.645C3.66053 11.6456 3.22311 11.8005 2.8721 12.084C2.52108 12.3675 2.27759 12.7626 2.18206 13.2036H1.38049V10.309H11.708V13.2036H6.04143C5.94641 12.7623 5.70306 12.367 5.35193 12.0834C5.0008 11.7998 4.5631 11.645 4.11174 11.645ZM14.9106 14.8475C14.6676 14.8475 14.4301 14.7755 14.2282 14.6405C14.0262 14.5055 13.8687 14.3137 13.7758 14.0892C13.6828 13.8648 13.6585 13.6178 13.7059 13.3796C13.7532 13.1413 13.8702 12.9224 14.042 12.7506C14.2138 12.5789 14.4327 12.4619 14.6709 12.4145C14.9092 12.3671 15.1562 12.3914 15.3806 12.4844C15.6051 12.5773 15.7969 12.7348 15.9319 12.9368C16.0669 13.1388 16.1389 13.3763 16.1389 13.6192C16.1385 13.9448 16.009 14.257 15.7787 14.4873C15.5484 14.7176 15.2362 14.8471 14.9106 14.8475ZM17.6196 13.2036H16.8403C16.7453 12.7623 16.502 12.3669 16.1508 12.0832C15.7997 11.7996 15.362 11.6449 14.9106 11.6449C14.4592 11.6449 14.0214 11.7996 13.6703 12.0832C13.3192 12.3669 13.0758 12.7623 12.9809 13.2036H12.4502V9.51489V6.23442H13.5709C13.744 6.23522 13.9162 6.25893 14.083 6.30493V8.75786C14.0836 8.95452 14.162 9.14297 14.3011 9.28203C14.4401 9.42109 14.6286 9.49947 14.8252 9.50005H17.5119C17.5833 9.69886 17.6197 9.90854 17.6196 10.1198V13.2036Z" fill="white"/>
<path d="M4.11177 12.5616C3.90333 12.5616 3.69956 12.6234 3.52625 12.7392C3.35293 12.855 3.21785 13.0196 3.13809 13.2122C3.05832 13.4048 3.03745 13.6167 3.07811 13.8211C3.11878 14.0255 3.21915 14.2133 3.36654 14.3607C3.51394 14.5081 3.70172 14.6085 3.90616 14.6492C4.1106 14.6898 4.3225 14.6689 4.51508 14.5892C4.70766 14.5094 4.87225 14.3743 4.98806 14.201C5.10386 14.0277 5.16567 13.8239 5.16567 13.6155C5.16523 13.3361 5.05405 13.0683 4.8565 12.8708C4.65895 12.6732 4.39115 12.562 4.11177 12.5616ZM4.11177 13.9309C4.05012 13.9309 3.98985 13.9126 3.93859 13.8784C3.88732 13.8441 3.84737 13.7955 3.82378 13.7385C3.80018 13.6815 3.79401 13.6189 3.80604 13.5584C3.81807 13.4979 3.84775 13.4424 3.89135 13.3988C3.93494 13.3552 3.99049 13.3255 4.05095 13.3135C4.11142 13.3015 4.1741 13.3076 4.23106 13.3312C4.28802 13.3548 4.3367 13.3948 4.37095 13.446C4.4052 13.4973 4.42349 13.5576 4.42349 13.6192C4.42299 13.7017 4.38999 13.7807 4.33164 13.8391C4.27329 13.8974 4.19429 13.9304 4.11177 13.9309ZM14.9106 12.5616C14.7022 12.5616 14.4984 12.6234 14.3251 12.7392C14.1518 12.855 14.0167 13.0196 13.9369 13.2122C13.8571 13.4048 13.8363 13.6167 13.8769 13.8211C13.9176 14.0255 14.018 14.2133 14.1654 14.3607C14.3128 14.5081 14.5005 14.6085 14.705 14.6492C14.9094 14.6898 15.1213 14.6689 15.3139 14.5892C15.5065 14.5094 15.6711 14.3743 15.7869 14.201C15.9027 14.0277 15.9645 13.8239 15.9645 13.6155C15.9641 13.3361 15.8529 13.0683 15.6553 12.8708C15.4578 12.6732 15.19 12.562 14.9106 12.5616ZM14.9106 13.9309C14.8489 13.9309 14.7887 13.9126 14.7374 13.8784C14.6862 13.8441 14.6462 13.7955 14.6226 13.7385C14.599 13.6815 14.5928 13.6189 14.6049 13.5584C14.6169 13.4979 14.6466 13.4424 14.6902 13.3988C14.7338 13.3552 14.7893 13.3255 14.8498 13.3135C14.9102 13.3015 14.9729 13.3076 15.0299 13.3312C15.0868 13.3548 15.1355 13.3948 15.1698 13.446C15.204 13.4973 15.2223 13.5576 15.2223 13.6192C15.2218 13.7017 15.1888 13.7807 15.1305 13.8391C15.0721 13.8974 14.9931 13.9304 14.9106 13.9309ZM5.76314 7.8821C5.7975 7.91717 5.83848 7.94508 5.88371 7.96419C5.92894 7.9833 5.97751 7.99324 6.02661 7.99343C6.125 7.9927 6.21933 7.95417 6.29009 7.88581L8.07505 6.10085C8.14443 6.03146 8.18342 5.93735 8.18342 5.83923C8.18342 5.7411 8.14443 5.64699 8.07505 5.57761C8.00566 5.50822 7.91155 5.46924 7.81343 5.46924C7.7153 5.46924 7.62119 5.50822 7.55181 5.57761L6.03032 7.09909L5.29185 6.34577C5.22295 6.27589 5.12912 6.23624 5.03099 6.23555C4.93287 6.23485 4.83848 6.27316 4.7686 6.34206C4.69873 6.41095 4.65908 6.50478 4.65838 6.60291C4.65769 6.70104 4.696 6.79542 4.76489 6.8653L5.76314 7.8821Z" fill="white"/>
</svg>
