<svg width="17" height="17" viewBox="0 0 17 17" fill="none" xmlns="http://www.w3.org/2000/svg">
<g clip-path="url(#clip0_2_413)">
<path d="M5.9994 5.40642L5.66006 5.74023L5.8985 5.98261L6.23783 5.6488L5.9994 5.40642Z" fill="white"/>
<path d="M1.01999 10.7813L5.55899 6.31708L5.32099 6.07568L0.679993 10.6385V16.3199H4.58999V15.9799H1.01999V10.7813Z" fill="white"/>
<path d="M5.86839 12.9031C5.71153 12.9641 5.54342 12.9908 5.37539 12.9813L5.54539 13.3604C5.73436 13.3713 5.92318 13.3369 6.09619 13.2601C6.28739 13.1823 6.46087 13.0667 6.60619 12.9201C6.75577 12.7803 6.86747 12.6048 6.93089 12.4101C6.98234 12.244 6.98234 12.0662 6.93089 11.9001C6.87721 11.734 6.78385 11.5834 6.65889 11.4615C6.53499 11.3239 6.37178 11.2278 6.19139 11.1861C6.04649 11.1579 5.8968 11.1666 5.75619 11.2116C5.58836 11.2726 5.42576 11.347 5.26999 11.4343C5.15313 11.4988 5.03217 11.5556 4.90789 11.6043C4.81607 11.6404 4.71721 11.6549 4.61889 11.6468C4.51384 11.6349 4.41664 11.5854 4.34519 11.5074C4.28953 11.4568 4.24551 11.3947 4.21616 11.3255C4.18681 11.2562 4.17283 11.1814 4.17519 11.1062C4.19608 10.9274 4.28347 10.7629 4.41999 10.6455C4.51418 10.5526 4.62412 10.4772 4.74469 10.4228C4.87529 10.363 5.01486 10.3251 5.15779 10.3106L4.96739 9.93492C4.81042 9.94565 4.65722 9.98786 4.51689 10.059C4.37021 10.1313 4.2364 10.2272 4.12079 10.3429C3.97159 10.4821 3.86141 10.6579 3.80119 10.8529C3.75027 11.0191 3.75027 11.1967 3.80119 11.3629C3.85739 11.529 3.95306 11.6789 4.07999 11.7998C4.20546 11.939 4.37027 12.0369 4.55259 12.0803C4.69839 12.1104 4.8495 12.1022 4.99119 12.0565C5.16004 11.9961 5.32376 11.9222 5.48079 11.8355C5.59983 11.7719 5.72244 11.7151 5.84799 11.6655C5.9382 11.6302 6.0355 11.6168 6.13189 11.6264C6.23639 11.6398 6.33277 11.6898 6.40389 11.7675C6.45835 11.8178 6.50083 11.8796 6.5282 11.9484C6.55556 12.0173 6.56711 12.0914 6.56199 12.1653C6.53498 12.3472 6.44322 12.5132 6.30359 12.6328C6.17954 12.753 6.03113 12.8452 5.86839 12.9031ZM6.05029 8.47462L7.64149 11.8338L7.92879 11.5465L7.52419 10.7101L8.56119 9.67312L9.39419 10.0777L9.68999 9.78702L6.32569 8.19922L6.05029 8.47462ZM8.18209 9.49462L7.33209 10.3446L6.53989 8.71092L8.18209 9.49462Z" fill="white"/>
<path d="M7.6976 6.82714L10.1728 9.30234L11.509 7.96614L11.2013 7.65844L10.1439 8.71584L7.9764 6.54834L7.6976 6.82714Z" fill="white"/>
<path d="M10.9259 3.59717L9.54889 4.97587L12.0241 7.45107L13.4402 6.03497L13.1325 5.72727L11.9952 6.86457L11.1962 6.06557L12.1754 5.08637L11.8745 4.78547L10.8953 5.76467L10.1354 5.00477L11.2336 3.90657L10.9259 3.59717Z" fill="white"/>
<path d="M9.03721 13.6001L16.3897 6.12005L10.88 0.610352L6.34101 5.07285L6.57901 5.31595L10.88 1.08975L15.9103 6.12005L6.46001 15.7421C5.68254 15.6562 4.91405 15.5026 4.16331 15.2831C3.8024 15.184 3.45853 15.0309 3.14331 14.8292C3.20654 14.766 3.25669 14.691 3.29091 14.6085C3.32513 14.5259 3.34275 14.4374 3.34275 14.3481C3.34275 14.2587 3.32513 14.1702 3.29091 14.0877C3.25669 14.0051 3.20654 13.9301 3.14331 13.867C3.01367 13.7433 2.84138 13.6743 2.66221 13.6743C2.48304 13.6743 2.31075 13.7433 2.18111 13.867C2.07712 13.9715 2.00992 14.1069 1.98963 14.253C1.96933 14.399 1.99705 14.5477 2.0686 14.6766C2.14015 14.8055 2.25166 14.9077 2.38633 14.9677C2.52099 15.0277 2.67151 15.0423 2.81521 15.0094C3.05888 15.2258 3.47595 15.4259 4.06641 15.6095C5.20602 15.933 6.37851 16.1269 7.56161 16.1875C8.00021 16.2164 8.43201 16.23 8.84851 16.23C9.60335 16.2366 10.3574 16.1797 11.1027 16.06C12.1618 15.8747 12.7109 15.5721 12.7381 15.1556C12.7806 14.3668 10.846 13.8364 9.03721 13.6001ZM2.99031 14.3702C2.9852 14.4481 2.95338 14.522 2.90021 14.5793C2.89298 14.5615 2.88951 14.5424 2.89001 14.5232C2.90306 14.4614 2.93886 14.4068 2.99031 14.3702ZM2.31031 14.3464C2.31049 14.2857 2.32687 14.2263 2.35775 14.1741C2.38863 14.122 2.43288 14.079 2.48594 14.0497C2.53899 14.0204 2.59891 14.0059 2.65949 14.0075C2.72007 14.0091 2.77912 14.0269 2.83051 14.0591C2.75345 14.1072 2.68821 14.1721 2.63965 14.2489C2.59109 14.3257 2.56046 14.4125 2.55001 14.5028C2.54659 14.5602 2.5535 14.6178 2.57041 14.6728C2.51004 14.6595 2.45465 14.6294 2.41061 14.5861C2.34801 14.522 2.31319 14.4359 2.31371 14.3464H2.31031ZM11.0364 15.7251C9.89095 15.8958 8.72988 15.9369 7.57521 15.8475C7.34231 15.8322 7.11281 15.8118 6.88501 15.7897L8.73631 13.9044C11.1537 14.1866 12.41 14.7901 12.3913 15.1301C12.3828 15.2678 12.087 15.5415 11.0364 15.7251Z" fill="white"/>
</g>
<defs>
<clipPath id="clip0_2_413">
<rect width="17" height="17" fill="white"/>
</clipPath>
</defs>
</svg>
