<svg width="17" height="17" viewBox="0 0 17 17" fill="none" xmlns="http://www.w3.org/2000/svg">
<path d="M3.18092 10.6515C3.11343 10.6554 3.04583 10.646 2.98202 10.6237C2.9182 10.6014 2.85941 10.5667 2.80904 10.5216C2.73255 10.4532 2.67784 10.3639 2.65174 10.2646C2.62564 10.1654 2.62929 10.0607 2.66224 9.96348C2.69519 9.8663 2.75598 9.78096 2.83706 9.71806C2.91813 9.65516 3.01591 9.61749 3.11823 9.60973C3.18573 9.60572 3.25335 9.61513 3.31718 9.63743C3.38101 9.65972 3.43979 9.69446 3.49011 9.73962C3.54127 9.78522 3.58294 9.84045 3.61275 9.90216C3.64256 9.96388 3.65991 10.0309 3.66382 10.0993C3.66592 10.1342 3.67486 10.1683 3.69014 10.1997C3.70543 10.2311 3.72675 10.2592 3.75289 10.2824C3.77904 10.3056 3.8095 10.3234 3.84252 10.3348C3.87555 10.3463 3.9105 10.3511 3.94539 10.349C3.98027 10.3469 4.0144 10.3379 4.04582 10.3226C4.07725 10.3074 4.10536 10.286 4.12854 10.2599C4.15173 10.2337 4.16954 10.2033 4.18095 10.1703C4.19237 10.1372 4.19717 10.1023 4.19507 10.0674C4.184 9.89588 4.13085 9.72973 4.04032 9.58363C3.94979 9.43753 3.82467 9.31597 3.67602 9.2297C3.52737 9.14342 3.35976 9.09509 3.18799 9.08896C3.01622 9.08284 2.84559 9.11911 2.69117 9.19457C2.53675 9.27004 2.40329 9.38237 2.30259 9.52166C2.20188 9.66094 2.13703 9.82288 2.11376 9.99317C2.09049 10.1635 2.10952 10.3369 2.16917 10.4981C2.22882 10.6593 2.32725 10.8033 2.45576 10.9174C2.55794 11.0102 2.67772 11.0815 2.808 11.1271C2.93827 11.1727 3.07638 11.1916 3.21412 11.1828C3.28162 11.1785 3.3493 11.1877 3.41316 11.21C3.47703 11.2322 3.5358 11.2671 3.586 11.3124C3.66249 11.3808 3.7172 11.4701 3.7433 11.5694C3.7694 11.6686 3.76575 11.7733 3.7328 11.8705C3.69985 11.9677 3.63906 12.053 3.55798 12.1159C3.47691 12.1788 3.37913 12.2165 3.27681 12.2243C3.20931 12.2284 3.14167 12.219 3.07783 12.1967C3.01398 12.1744 2.95521 12.1396 2.90493 12.0944C2.85371 12.0488 2.81198 11.9936 2.78213 11.9319C2.75227 11.8702 2.73488 11.8032 2.73095 11.7347C2.72886 11.6998 2.71991 11.6657 2.70463 11.6343C2.68935 11.6029 2.66803 11.5748 2.64188 11.5516C2.61574 11.5284 2.58528 11.5106 2.55225 11.4992C2.51922 11.4877 2.48427 11.4829 2.44939 11.485C2.4145 11.4871 2.38038 11.4961 2.34895 11.5114C2.31752 11.5266 2.28942 11.548 2.26623 11.5741C2.24304 11.6003 2.22524 11.6307 2.21382 11.6637C2.20241 11.6968 2.19761 11.7317 2.1997 11.7666C2.2076 11.9044 2.24261 12.0393 2.30273 12.1636C2.36285 12.2878 2.4469 12.399 2.55006 12.4907C2.74054 12.662 2.98771 12.7566 3.24387 12.7563C3.26512 12.7563 3.28664 12.7563 3.30815 12.7545C3.51516 12.7404 3.71342 12.6656 3.87809 12.5393C4.04276 12.4131 4.16652 12.2411 4.23388 12.0449C4.30123 11.8486 4.30918 11.6369 4.25673 11.4361C4.20428 11.2354 4.09376 11.0546 3.93901 10.9163C3.83672 10.8238 3.71694 10.7527 3.58674 10.7073C3.45655 10.6618 3.31856 10.6428 3.18092 10.6515ZM7.96509 9.30612C7.78304 9.14317 7.57049 9.01795 7.33973 8.93769C7.10896 8.85744 6.86458 8.82375 6.62071 8.83857C6.37684 8.85339 6.13833 8.91643 5.91898 9.02404C5.69964 9.13166 5.50381 9.2817 5.34284 9.46549C5.10629 9.73504 4.9521 10.0668 4.89862 10.4215C4.84514 10.7761 4.89461 11.1386 5.04115 11.4659C5.18769 11.7932 5.42514 12.0716 5.72526 12.2679C6.02539 12.4642 6.37557 12.5702 6.73418 12.5733C6.77111 12.5733 6.80882 12.5733 6.84628 12.5699C7.21368 12.5446 7.56549 12.4116 7.85765 12.1874C8.14981 11.9632 8.36935 11.6578 8.48878 11.3094C8.60821 10.9611 8.62222 10.5852 8.52907 10.2289C8.43592 9.87262 8.23974 9.55146 7.96509 9.30612ZM6.81414 12.0394C6.5511 12.0522 6.29011 11.9872 6.06376 11.8526C5.83741 11.718 5.65573 11.5197 5.54137 11.2825C5.42702 11.0453 5.38508 10.7796 5.42077 10.5187C5.45646 10.2578 5.56821 10.0131 5.74207 9.81532C5.85656 9.68394 5.99612 9.57673 6.15256 9.49997C6.30901 9.42321 6.4792 9.37844 6.65317 9.36828C6.67973 9.36668 6.70629 9.36588 6.73286 9.36588C7.05656 9.36578 7.36884 9.48558 7.60942 9.70217C7.80602 9.87759 7.94657 10.1071 8.01351 10.3619C8.08045 10.6167 8.07081 10.8857 7.98578 11.1351C7.90076 11.3844 7.74414 11.6033 7.53547 11.7641C7.32681 11.925 7.07536 12.0209 6.81254 12.0397L6.81414 12.0394ZM11.3173 11.6394L9.82978 11.7292L9.66801 9.0482C9.66379 8.97775 9.63175 8.91187 9.57894 8.86504C9.52614 8.81821 9.4569 8.79428 9.38645 8.79851C9.316 8.80274 9.25012 8.83478 9.20329 8.88758C9.15647 8.94038 9.13254 9.00962 9.13676 9.08007L9.33093 12.2915L11.3497 12.1696C11.3846 12.1674 11.4187 12.1585 11.4501 12.1431C11.4815 12.1278 11.5096 12.1065 11.5328 12.0803C11.5559 12.0541 11.5737 12.0237 11.5851 11.9906C11.5965 11.9576 11.6012 11.9226 11.5991 11.8877C11.597 11.8528 11.588 11.8187 11.5727 11.7873C11.5574 11.7559 11.536 11.7278 11.5098 11.7046C11.4837 11.6815 11.4532 11.6637 11.4202 11.6523C11.3871 11.6409 11.3522 11.6362 11.3173 11.6383V11.6394ZM14.8392 10.0709C14.8268 9.86561 14.7742 9.66481 14.6842 9.47993C14.5942 9.29504 14.4687 9.1297 14.3148 8.99334C14.1609 8.85698 13.9816 8.75228 13.7873 8.68521C13.5929 8.61815 13.3872 8.59003 13.182 8.60248L12.0454 8.67128L12.2515 12.0822L13.3881 12.0134C13.5933 12.001 13.7941 11.9483 13.979 11.8584C14.1638 11.7684 14.3291 11.6429 14.4655 11.489C14.6019 11.3352 14.7066 11.156 14.7737 10.9616C14.8407 10.7673 14.8689 10.5616 14.8565 10.3564L14.8392 10.0709ZM14.0689 11.1365C13.9789 11.2383 13.8697 11.3212 13.7475 11.3805C13.6253 11.4397 13.4926 11.4742 13.357 11.4819L12.7501 11.5198L12.6082 9.16959L13.2146 9.13267C13.3502 9.12447 13.4861 9.14305 13.6145 9.18736C13.7429 9.23168 13.8613 9.30085 13.963 9.39093C14.0647 9.48101 14.1476 9.59023 14.2071 9.71236C14.2665 9.83449 14.3013 9.96714 14.3095 10.1027L14.3268 10.3883C14.3353 10.5239 14.3167 10.6599 14.2723 10.7883C14.2278 10.9168 14.1583 11.0351 14.0678 11.1365H14.0689Z" fill="white"/>
<path d="M15.9973 6.4775L12.6324 6.6807L8.41636 2.71253C8.57343 2.58562 8.68478 2.4109 8.73348 2.21493C8.78219 2.01896 8.7656 1.81245 8.68622 1.62677C8.60685 1.44109 8.46904 1.2864 8.29372 1.18619C8.1184 1.08599 7.91517 1.04575 7.7149 1.07159C7.51463 1.09743 7.32826 1.18794 7.18413 1.32937C7.03999 1.47079 6.94595 1.6554 6.91631 1.85515C6.88667 2.05489 6.92304 2.25885 7.0199 2.43604C7.11676 2.61323 7.2688 2.75396 7.45294 2.83684L3.54825 7.22975L0.561035 7.41091L1.00277 14.7169L16.439 13.784L15.9973 6.4775ZM7.83597 1.59372C7.91478 1.59372 7.99181 1.61709 8.05733 1.66087C8.12286 1.70465 8.17392 1.76687 8.20408 1.83968C8.23424 1.91248 8.24213 1.9926 8.22675 2.06989C8.21138 2.14718 8.17343 2.21817 8.11771 2.27389C8.06199 2.32962 7.99099 2.36756 7.9137 2.38294C7.83641 2.39831 7.7563 2.39042 7.6835 2.36026C7.61069 2.33011 7.54847 2.27904 7.50468 2.21351C7.4609 2.14799 7.43754 2.07096 7.43754 1.99215C7.43754 1.88648 7.47951 1.78514 7.55424 1.71042C7.62896 1.6357 7.7303 1.59372 7.83597 1.59372ZM7.98552 3.03712L11.904 6.7248L4.29918 7.18433L7.98552 3.03712ZM1.50082 14.1546L1.12336 7.90842L15.4993 7.03903L15.8767 13.2849L1.50082 14.1546Z" fill="white"/>
</svg>
